<svg xmlns="http://www.w3.org/2000/svg" version="1.1" xmlns:xlink="http://www.w3.org/1999/xlink" xmlns:svgjs="http://svgjs.dev/svgjs" width="1500" height="1500" viewBox="0 0 1500 1500"><rect width="1500" height="1500" fill="#000000"></rect><g transform="matrix(0.6666666666666666,0,0,0.6666666666666666,249.78425655976667,249.78425655976673)"><svg viewBox="0 0 343 343" data-background-color="#ffffff" preserveAspectRatio="xMidYMid meet" height="1500" width="1500" xmlns="http://www.w3.org/2000/svg" xmlns:xlink="http://www.w3.org/1999/xlink"><g id="tight-bounds" transform="matrix(1,0,0,1,0.0740000000000407,0.07400000000001228)"><svg viewBox="0 0 342.85155851775386 342.85155851775386" height="342.85155851775386" width="342.85155851775386"><g><svg></svg></g><g><svg viewBox="0 0 342.85155851775386 342.85155851775386" height="342.85155851775386" width="342.85155851775386"><g><path d="M0 171.426c0-94.676 76.75-171.426 171.426-171.426 94.676 0 171.426 76.75 171.426 171.426 0 94.676-76.75 171.426-171.426 171.426-94.676 0-171.426-76.75-171.426-171.426zM171.426 338.897c92.492 0 167.471-74.979 167.471-167.471 0-92.492-74.979-167.471-167.471-167.471-92.492 0-167.471 74.979-167.471 167.471 0 92.492 74.979 167.471 167.471 167.471z" data-fill-palette-color="tertiary" fill="#ffffff" stroke="transparent"></path><ellipse rx="164.56874808852186" ry="164.56874808852186" cx="171.42577925887693" cy="171.42577925887693" fill="#ffffff" stroke="transparent" stroke-width="0" fill-opacity="1" data-fill-palette-color="tertiary"></ellipse></g><g transform="matrix(1,0,0,1,64.84655864529837,88.75290926678419)"><svg viewBox="0 0 213.1584412271571 165.34573998418549" height="165.34573998418549" width="213.1584412271571"><g><svg viewBox="0 0 213.1584412271571 165.34573998418549" height="165.34573998418549" width="213.1584412271571"><g><svg viewBox="0 0 213.1584412271571 165.34573998418549" height="165.34573998418549" width="213.1584412271571"><g transform="matrix(1,0,0,1,0,100.27717286698683)"><svg viewBox="0 0 213.1584412271571 65.06856711719865" height="65.06856711719865" width="213.1584412271571"><g id="textblocktransform"><svg viewBox="0 0 213.1584412271571 65.06856711719865" height="65.06856711719865" width="213.1584412271571" id="textblock"><g><svg viewBox="0 0 213.1584412271571 43.85203540816633" height="43.85203540816633" width="213.1584412271571"><g transform="matrix(1,0,0,1,0,0)"><svg width="213.1584412271571" viewBox="1.75 -32.1 158.94 32.7" height="43.85203540816633" data-palette-color="#ffffff"><path d="M25.9 0L24.95 0 24.9-0.7Q24.85-1.75 24.1-1.75L24.1-1.75Q23.7-1.75 22.65-1.2L22.65-1.2Q19.4 0.6 16.1 0.6L16.1 0.6Q9.8 0.6 5.78-3.75 1.75-8.1 1.75-15.73 1.75-23.35 5.73-27.73 9.7-32.1 16.1-32.1L16.1-32.1Q19.35-32.1 22.6-30.45L22.6-30.45Q23.65-29.9 24.1-29.9L24.1-29.9Q24.85-29.9 24.9-30.95L24.9-30.95 24.95-31.8 25.9-31.8 25.9-23.15 25-23.15Q24.55-27 22.13-28.83 19.7-30.65 16.1-30.65L16.1-30.65Q11.55-30.65 8.78-26.65 6-22.65 6-15.7 6-8.75 8.8-4.8 11.6-0.85 16.1-0.85L16.1-0.85Q19.7-0.85 22.13-2.68 24.55-4.5 25-8.35L25-8.35 25.9-8.35 25.9 0ZM46.45 0L29.9 0 29.9-0.9 32.25-0.9Q32.95-0.9 32.95-1.6L32.95-1.6 32.95-30Q32.95-30.6 32.25-30.6L32.25-30.6 29.9-30.6 29.9-31.5 45.75-31.5Q49.7-31.5 51.3-31.95L51.3-31.95Q50.85-29.9 50.85-26.25L50.85-26.25 50.85-23.9 49.7-23.9 48.95-29Q48.85-30.1 47.55-30.1L47.55-30.1 37.05-30.1 37.05-16.45 47.1-16.45Q47.7-16.45 47.8-17.15L47.8-17.15 48.05-20.25 48.95-20.25 48.95-11.25 48.05-11.25 47.8-14.35Q47.7-15.05 47.1-15.05L47.1-15.05 37.05-15.05 37.05-1.4 48.25-1.4Q49.55-1.4 49.65-2.5L49.65-2.5 50.4-8.35 51.55-8.35 51.55-6Q51.55-1.6 52 0.45L52 0.45Q50.4 0 46.45 0L46.45 0ZM78.15-1.05L78.15-1.05Q78.9-1.05 79.37-1.68 79.84-2.3 79.84-3.18 79.84-4.05 79.7-4.8L79.7-4.8 80.65-4.95Q80.84-4.2 80.84-3.3L80.84-3.3Q80.84-1.5 79.77-0.45 78.7 0.6 77 0.6L77 0.6Q72.75 0.6 72.75-4.55 72.75-9.7 71.45-12.13 70.15-14.55 66.15-14.55L66.15-14.55 62.9-14.55 62.9-1.6Q62.9-0.9 63.6-0.9L63.6-0.9 66.95-0.9 66.95 0 55.75 0 55.75-0.9 58.1-0.9Q58.8-0.9 58.8-1.6L58.8-1.6 58.8-30Q58.8-30.6 58.1-30.6L58.1-30.6 55.75-30.6 55.75-31.5 68.2-31.5Q72.4-31.5 75.34-29.2 78.3-26.9 78.3-23.05L78.3-23.05Q78.3-19.95 76.37-17.82 74.45-15.7 71.3-14.9L71.3-14.9Q74.84-13.7 75.8-10.6L75.8-10.6Q76.55-8.05 76.55-4.55 76.55-1.05 78.15-1.05ZM67.95-30.1L67.95-30.1 62.9-30.1 62.9-16 67.95-16Q70.95-16 72.62-18.1 74.3-20.2 74.3-23.05 74.3-25.9 72.62-28 70.95-30.1 67.95-30.1ZM84.59-30.6L82.24-30.6 82.24-31.5 94.94-31.5Q101.29-31.5 105.29-27.3 109.29-23.1 109.29-15.75 109.29-8.4 105.29-4.2 101.29 0 94.94 0L94.94 0 82.24 0 82.24-0.9 84.59-0.9Q85.29-0.9 85.29-1.5L85.29-1.5 85.29-30Q85.29-30.6 84.59-30.6L84.59-30.6ZM94.94-30.1L94.94-30.1 89.39-30.1 89.39-1.4 94.94-1.4Q99.24-1.4 102.14-5.25 105.04-9.1 105.04-15.75 105.04-22.4 102.14-26.25 99.24-30.1 94.94-30.1ZM138.34-0.9L138.34 0 128.09 0 128.09-0.9 131.34-0.9 127.84-10.55 116.84-10.55 113.34-0.9 116.59-0.9 116.59 0 109.04 0 109.04-0.9 110.89-0.9Q111.59-0.9 111.84-1.6L111.84-1.6 122.84-31.5 124.54-31.5 135.54-1.6Q135.79-0.9 136.49-0.9L136.49-0.9 138.34-0.9ZM127.34-11.95L122.39-25.6 117.39-11.95 127.34-11.95ZM150.24 0.6L150.24 0.6Q146.94 0.6 143.64-1.2L143.64-1.2Q142.54-1.75 142.14-1.75L142.14-1.75Q141.39-1.75 141.34-0.7L141.34-0.7 141.29 0 140.34 0 140.34-8.35 141.24-8.35Q141.69-4.5 144.11-2.68 146.54-0.85 149.86-0.85 153.19-0.85 154.91-2.65 156.64-4.45 156.64-6.9L156.64-6.9Q156.64-10.8 152.14-12.8L152.14-12.8 146.19-15.45Q143.49-16.65 142.14-18.73 140.79-20.8 140.79-23.2L140.79-23.2Q140.79-26.85 143.24-29.48 145.69-32.1 150.29-32.1L150.29-32.1Q152.99-32.1 155.84-30.3L155.84-30.3Q156.79-29.75 157.14-29.75L157.14-29.75Q157.79-29.75 157.84-30.8L157.84-30.8 157.89-31.8 158.84-31.8 158.84-23.15 157.94-23.15Q157.54-27 155.46-28.83 153.39-30.65 150.41-30.65 147.44-30.65 145.81-29.03 144.19-27.4 144.19-25.33 144.19-23.25 145.31-21.6 146.44-19.95 148.64-19L148.64-19 154.64-16.35Q157.64-15 159.16-12.83 160.69-10.65 160.69-8.15L160.69-8.15Q160.69-4.6 157.84-2 154.99 0.6 150.24 0.6Z" opacity="1" transform="matrix(1,0,0,1,0,0)" fill="#000000" class="wordmark-text-0" data-fill-palette-color="quaternary" id="text-0"></path></svg></g></svg></g><g transform="matrix(1,0,0,1,0,54.2044485191846)"><svg viewBox="0 0 213.1584412271571 10.864118598014041" height="10.864118598014041" width="213.1584412271571"><g transform="matrix(1,0,0,1,0,0)"><svg width="213.1584412271571" viewBox="2.55 -36.15 720.97 36.75" height="10.864118598014041" data-palette-color="#ffffff"><path d="M14.25 0.6Q8.7 0.6 5.63-2.55 2.55-5.7 2.55-12.05L2.55-12.05Q2.55-17.25 3.98-22.48 5.4-27.7 8.78-31.3 12.15-34.9 17.65-34.9L17.65-34.9Q28.5-34.9 28.5-22.65L28.5-22.65 28.5-21.85 23.95-21.85 23.95-22.95Q23.95-30.85 17.6-30.85L17.6-30.85Q13.35-30.85 11-27.33 8.65-23.8 7.85-19.58 7.05-15.35 7.05-12.3L7.05-12.3Q7.05-8.05 8.88-5.78 10.7-3.5 14.1-3.5L14.1-3.5Q17.7-3.5 19.93-5.95 22.15-8.4 22.7-12.1L22.7-12.1 27.05-12.1Q26.6-8.6 24.98-5.7 23.35-2.8 20.63-1.1 17.9 0.6 14.25 0.6L14.25 0.6ZM39.85 0.6Q35.7 0.6 33.52-1.78 31.35-4.15 31.35-8.95L31.35-8.95Q31.35-16.1 33.87-21.5 36.4-26.9 42.5-26.9L42.5-26.9Q50.6-26.9 50.6-17.45L50.6-17.45Q50.6-14.5 50.2-11.95L50.2-11.95 35.75-11.95Q35.6-10.4 35.6-9.3L35.6-9.3Q35.6-3.05 39.85-3.05L39.85-3.05Q42-3.05 43.52-4.75 45.05-6.45 45.4-8.9L45.4-8.9 49.55-8.9Q48.9-4.8 46.37-2.1 43.85 0.6 39.85 0.6L39.85 0.6ZM36.25-15.6L46.3-15.6Q46.35-16.25 46.35-17.4L46.35-17.4Q46.35-23.25 42.5-23.25L42.5-23.25Q40-23.25 38.47-21.08 36.95-18.9 36.25-15.6L36.25-15.6ZM58.15 0.5Q56 0.5 55.05-0.68 54.1-1.85 54.1-3.75L54.1-3.75Q54.1-5 56.7-22.65L56.7-22.65 54.45-22.65 54.95-26.3 57.2-26.3 59-33.6 62.35-33.6 61.3-26.3 64.84-26.3 64.34-22.65 60.8-22.65Q58.3-5.45 58.3-4.9L58.3-4.9Q58.3-3.05 60.15-3.05L60.15-3.05 61.6-3.05 61.2-0.2Q60.6 0.1 59.75 0.3 58.9 0.5 58.15 0.5L58.15 0.5ZM72.09 0.6Q69.04 0.6 67.24-1.85 65.44-4.3 65.44-9.15L65.44-9.15Q65.44-14.9 66.92-18.9 68.39-22.9 70.72-24.9 73.04-26.9 75.59-26.9L75.59-26.9Q79.74-26.9 81.04-22.65L81.04-22.65 81.94-26.3 85.19-26.3Q82.14-5 82.14-4.45L82.14-4.45Q82.14-3.75 82.47-3.4 82.79-3.05 83.34-3.05L83.34-3.05 84.94-3.05 84.54-0.2Q83.39 0.6 81.74 0.6L81.74 0.6Q80.09 0.6 79.14-0.4 78.19-1.4 78.14-3.55L78.14-3.55Q76.69-1.4 75.27-0.4 73.84 0.6 72.09 0.6L72.09 0.6ZM73.34-3.05Q75.49-3.05 76.92-5.65 78.34-8.25 78.99-11.68 79.64-15.1 79.64-17.6L79.64-17.6Q79.64-23.25 76.19-23.25L76.19-23.25Q73.74-23.25 72.27-20.73 70.79-18.2 70.22-14.85 69.64-11.5 69.64-8.75L69.64-8.75Q69.64-3.05 73.34-3.05L73.34-3.05ZM87.54 0L92.59-36.15 96.69-36.15 93.64-14.6 103.49-26.3 108.39-26.3 99.09-15.5 105.09 0 100.59 0 96.19-12.1 92.94-9.35 91.64 0 87.54 0ZM120.19 0L125.04-34.3 135.19-34.3Q140.69-34.3 143.66-31.05 146.64-27.8 146.64-21.45L146.64-21.45Q146.64-16.5 145.09-11.58 143.54-6.65 140.19-3.33 136.84 0 131.74 0L131.74 0 120.19 0ZM125.19-4L131.24-4Q135.24-4 137.66-6.73 140.09-9.45 141.09-13.4 142.09-17.35 142.09-21.4L142.09-21.4Q142.09-25.85 140.16-28.08 138.24-30.3 134.69-30.3L134.69-30.3 128.84-30.3 125.19-4ZM158.03 0.6Q149.73 0.6 149.73-8.75L149.73-8.75Q149.73-13 150.71-17.1 151.68-21.2 154.18-24.05 156.68-26.9 160.88-26.9L160.88-26.9Q169.18-26.9 169.18-17.45L169.18-17.45Q169.18-13.2 168.21-9.13 167.23-5.05 164.73-2.23 162.23 0.6 158.03 0.6L158.03 0.6ZM158.03-3.05Q160.78-3.05 162.33-5.65 163.88-8.25 164.41-11.53 164.93-14.8 164.93-17.4L164.93-17.4Q164.93-23.25 160.88-23.25L160.88-23.25Q158.13-23.25 156.61-20.73 155.08-18.2 154.53-15.03 153.98-11.85 153.98-9.3L153.98-9.3Q153.98-6.1 154.96-4.58 155.93-3.05 158.03-3.05L158.03-3.05ZM171.83 0L176.88-36.15 180.98-36.15 177.93-14.6 187.78-26.3 192.68-26.3 183.38-15.5 189.38 0 184.88 0 180.48-12.1 177.23-9.35 175.93 0 171.83 0ZM199.18 0.6Q196.18 0.6 194.83-1.07 193.48-2.75 193.48-5.3L193.48-5.3Q193.48-6.8 196.28-26.3L196.28-26.3 200.38-26.3Q197.68-7.75 197.68-6.25L197.68-6.25Q197.68-3.05 200.68-3.05L200.68-3.05Q203.13-3.05 204.75-5.38 206.38-7.7 206.93-11.6L206.93-11.6 208.98-26.3 213.08-26.3 209.38 0 206.18 0 206.18-3.85Q205.33-2.2 203.63-0.8 201.93 0.6 199.18 0.6L199.18 0.6ZM215.28 0L218.98-26.3 222.18-26.3 222.18-22.4Q222.98-24.05 224.63-25.48 226.28-26.9 228.93-26.9L228.93-26.9Q231.33-26.9 232.58-25.63 233.83-24.35 234.13-22.3L234.13-22.3Q234.98-24 236.6-25.45 238.23-26.9 240.93-26.9L240.93-26.9Q243.73-26.9 244.98-25.23 246.23-23.55 246.23-21L246.23-21Q246.23-19.5 243.43 0L243.43 0 239.33 0Q242.03-18.55 242.03-20.05L242.03-20.05Q242.03-23.25 239.43-23.25L239.43-23.25Q237.18-23.25 235.63-21.1 234.08-18.95 233.58-15.35L233.58-15.35 231.43 0 227.33 0Q230.03-18.55 230.03-20.05L230.03-20.05Q230.03-23.25 227.43-23.25L227.43-23.25Q225.08-23.25 223.53-20.93 221.98-18.6 221.43-14.7L221.43-14.7 219.38 0 215.28 0ZM258.57 0.6Q254.42 0.6 252.25-1.78 250.07-4.15 250.07-8.95L250.07-8.95Q250.07-16.1 252.6-21.5 255.12-26.9 261.22-26.9L261.22-26.9Q269.32-26.9 269.32-17.45L269.32-17.45Q269.32-14.5 268.92-11.95L268.92-11.95 254.47-11.95Q254.32-10.4 254.32-9.3L254.32-9.3Q254.32-3.05 258.57-3.05L258.57-3.05Q260.72-3.05 262.25-4.75 263.77-6.45 264.12-8.9L264.12-8.9 268.27-8.9Q267.62-4.8 265.1-2.1 262.57 0.6 258.57 0.6L258.57 0.6ZM254.97-15.6L265.02-15.6Q265.07-16.25 265.07-17.4L265.07-17.4Q265.07-23.25 261.22-23.25L261.22-23.25Q258.72-23.25 257.2-21.08 255.67-18.9 254.97-15.6L254.97-15.6ZM272.22 0L275.92-26.3 279.12-26.3 279.12-22.4Q279.97-24.1 281.67-25.5 283.37-26.9 286.12-26.9L286.12-26.9Q289.12-26.9 290.47-25.23 291.82-23.55 291.82-21L291.82-21Q291.82-19.5 289.02 0L289.02 0 284.92 0Q287.62-18.55 287.62-20.05L287.62-20.05Q287.62-23.25 284.62-23.25L284.62-23.25Q282.17-23.25 280.55-20.93 278.92-18.6 278.37-14.7L278.37-14.7 276.32 0 272.22 0ZM306.52 0L311.37-34.3 317.97-34.3 320.82-11.8Q321.12-9.7 321.17-5.1L321.17-5.1 321.37-5.1Q322.47-9.8 323.27-11.8L323.27-11.8 332.57-34.3 339.32-34.3 334.47 0 330.07 0 333.57-24.9 334.32-29.2 334.12-29.2Q333.02-25.85 332.57-24.9L332.57-24.9 322.22 0 318.27 0 315.02-24.9Q314.92-25.6 314.67-29.2L314.67-29.2 314.47-29.2 313.97-24.9 310.47 0 306.52 0ZM349.71 0.6Q345.56 0.6 343.39-1.78 341.21-4.15 341.21-8.95L341.21-8.95Q341.21-16.1 343.74-21.5 346.26-26.9 352.36-26.9L352.36-26.9Q360.46-26.9 360.46-17.45L360.46-17.45Q360.46-14.5 360.06-11.95L360.06-11.95 345.61-11.95Q345.46-10.4 345.46-9.3L345.46-9.3Q345.46-3.05 349.71-3.05L349.71-3.05Q351.86-3.05 353.39-4.75 354.91-6.45 355.26-8.9L355.26-8.9 359.41-8.9Q358.76-4.8 356.24-2.1 353.71 0.6 349.71 0.6L349.71 0.6ZM346.11-15.6L356.16-15.6Q356.21-16.25 356.21-17.4L356.21-17.4Q356.21-23.25 352.36-23.25L352.36-23.25Q349.86-23.25 348.34-21.08 346.81-18.9 346.11-15.6L346.11-15.6ZM370.61 0.6Q367.56 0.6 365.76-1.85 363.96-4.3 363.96-9.15L363.96-9.15Q363.96-14.9 365.44-18.9 366.91-22.9 369.24-24.9 371.56-26.9 374.11-26.9L374.11-26.9Q377.76-26.9 379.36-23.4L379.36-23.4 381.16-36.15 385.26-36.15 380.21 0 376.96 0 376.96-3.55Q374.41 0.6 370.61 0.6L370.61 0.6ZM371.86-3.05Q374.21-3.05 375.69-5.65 377.16-8.25 377.76-11.63 378.36-15 378.36-17.6L378.36-17.6Q378.36-23.25 374.71-23.25L374.71-23.25Q372.26-23.25 370.79-20.73 369.31-18.2 368.74-14.85 368.16-11.5 368.16-8.75L368.16-8.75Q368.16-3.05 371.86-3.05L371.86-3.05ZM386.96 0L390.61-26.3 394.71-26.3 391.01 0 386.96 0ZM391.21-31.4L391.91-36.15 396.16-36.15 395.46-31.4 391.21-31.4ZM405.76 0.6Q403.46 0.6 401.58-0.4 399.71-1.4 398.61-3.25 397.51-5.1 397.51-7.5L397.51-7.5Q397.51-8.55 397.61-9.1L397.61-9.1 401.86-9.1Q401.71-8.3 401.71-7.5L401.71-7.5Q401.71-5.3 402.96-4.15 404.21-3 406.16-3L406.16-3Q407.86-3 408.91-4.08 409.96-5.15 409.96-6.75L409.96-6.75Q409.96-8.6 408.86-9.68 407.76-10.75 405.51-12.1L405.51-12.1Q403.71-13.15 402.61-14 401.51-14.85 400.73-16.2 399.96-17.55 399.96-19.5L399.96-19.5Q399.96-22.75 402.08-24.83 404.21-26.9 408.06-26.9L408.06-26.9Q411.81-26.9 413.68-24.53 415.56-22.15 415.56-18.65L415.56-18.65 411.31-18.65Q411.31-21.15 410.26-22.23 409.21-23.3 407.61-23.3L407.61-23.3Q406.36-23.3 405.28-22.43 404.21-21.55 404.21-20.1L404.21-20.1Q404.21-18.25 405.28-17.25 406.36-16.25 408.56-15.05L408.56-15.05Q410.36-14.05 411.48-13.23 412.61-12.4 413.41-10.98 414.21-9.55 414.21-7.4L414.21-7.4Q414.21-3.65 411.93-1.53 409.66 0.6 405.76 0.6L405.76 0.6ZM430.05 0L434.9-34.3 448.2-34.3Q452.9-34.3 455.2-32.18 457.5-30.05 457.5-26.35L457.5-26.35Q457.5-22.6 455.58-19.83 453.65-17.05 450.3-15.9L450.3-15.9 454.9 0 450.25 0 445.85-15.15 436.6-15.15 434.45 0 430.05 0ZM437.15-19.15L446-19.15Q448.95-19.15 450.93-20.98 452.9-22.8 452.9-25.65L452.9-25.65Q452.9-27.9 451.53-29.1 450.15-30.3 447.55-30.3L447.55-30.3 438.7-30.3 437.15-19.15ZM466.25 0.6Q463.2 0.6 461.4-1.85 459.6-4.3 459.6-9.15L459.6-9.15Q459.6-14.9 461.07-18.9 462.55-22.9 464.87-24.9 467.2-26.9 469.75-26.9L469.75-26.9Q473.9-26.9 475.2-22.65L475.2-22.65 476.1-26.3 479.35-26.3Q476.3-5 476.3-4.45L476.3-4.45Q476.3-3.75 476.62-3.4 476.95-3.05 477.5-3.05L477.5-3.05 479.1-3.05 478.7-0.2Q477.55 0.6 475.9 0.6L475.9 0.6Q474.25 0.6 473.3-0.4 472.35-1.4 472.3-3.55L472.3-3.55Q470.85-1.4 469.42-0.4 468 0.6 466.25 0.6L466.25 0.6ZM467.5-3.05Q469.65-3.05 471.07-5.65 472.5-8.25 473.15-11.68 473.8-15.1 473.8-17.6L473.8-17.6Q473.8-23.25 470.35-23.25L470.35-23.25Q467.9-23.25 466.42-20.73 464.95-18.2 464.37-14.85 463.8-11.5 463.8-8.75L463.8-8.75Q463.8-3.05 467.5-3.05L467.5-3.05ZM489.1 0.6Q486.05 0.6 484.25-1.85 482.45-4.3 482.45-9.15L482.45-9.15Q482.45-14.9 483.92-18.9 485.4-22.9 487.72-24.9 490.05-26.9 492.6-26.9L492.6-26.9Q496.25-26.9 497.85-23.4L497.85-23.4 499.65-36.15 503.75-36.15 498.7 0 495.45 0 495.45-3.55Q492.9 0.6 489.1 0.6L489.1 0.6ZM490.35-3.05Q492.7-3.05 494.17-5.65 495.65-8.25 496.25-11.63 496.85-15 496.85-17.6L496.85-17.6Q496.85-23.25 493.2-23.25L493.2-23.25Q490.75-23.25 489.27-20.73 487.8-18.2 487.22-14.85 486.65-11.5 486.65-8.75L486.65-8.75Q486.65-3.05 490.35-3.05L490.35-3.05ZM513.79 0.6Q509.64 0.6 507.47-1.78 505.29-4.15 505.29-8.95L505.29-8.95Q505.29-16.1 507.82-21.5 510.34-26.9 516.44-26.9L516.44-26.9Q524.54-26.9 524.54-17.45L524.54-17.45Q524.54-14.5 524.14-11.95L524.14-11.95 509.69-11.95Q509.54-10.4 509.54-9.3L509.54-9.3Q509.54-3.05 513.79-3.05L513.79-3.05Q515.94-3.05 517.47-4.75 518.99-6.45 519.34-8.9L519.34-8.9 523.49-8.9Q522.84-4.8 520.32-2.1 517.79 0.6 513.79 0.6L513.79 0.6ZM510.19-15.6L520.24-15.6Q520.29-16.25 520.29-17.4L520.29-17.4Q520.29-23.25 516.44-23.25L516.44-23.25Q513.94-23.25 512.42-21.08 510.89-18.9 510.19-15.6L510.19-15.6ZM527.44 0L531.14-26.3 534.34-26.3 534.34-22.4Q535.19-24.1 536.89-25.5 538.59-26.9 541.34-26.9L541.34-26.9Q544.34-26.9 545.69-25.23 547.04-23.55 547.04-21L547.04-21Q547.04-19.5 544.24 0L544.24 0 540.14 0Q542.84-18.55 542.84-20.05L542.84-20.05Q542.84-23.25 539.84-23.25L539.84-23.25Q537.39-23.25 535.76-20.93 534.14-18.6 533.59-14.7L533.59-14.7 531.54 0 527.44 0ZM561.73 0L566.58-34.3 573.18-34.3 576.03-11.8Q576.33-9.7 576.38-5.1L576.38-5.1 576.58-5.1Q577.68-9.8 578.48-11.8L578.48-11.8 587.78-34.3 594.53-34.3 589.68 0 585.28 0 588.78-24.9 589.53-29.2 589.33-29.2Q588.23-25.85 587.78-24.9L587.78-24.9 577.43 0 573.48 0 570.23-24.9Q570.13-25.6 569.88-29.2L569.88-29.2 569.68-29.2 569.18-24.9 565.68 0 561.73 0ZM602.98 0.6Q599.93 0.6 598.13-1.85 596.33-4.3 596.33-9.15L596.33-9.15Q596.33-14.9 597.81-18.9 599.28-22.9 601.61-24.9 603.93-26.9 606.48-26.9L606.48-26.9Q610.63-26.9 611.93-22.65L611.93-22.65 612.83-26.3 616.08-26.3Q613.03-5 613.03-4.45L613.03-4.45Q613.03-3.75 613.36-3.4 613.68-3.05 614.23-3.05L614.23-3.05 615.83-3.05 615.43-0.2Q614.28 0.6 612.63 0.6L612.63 0.6Q610.98 0.6 610.03-0.4 609.08-1.4 609.03-3.55L609.03-3.55Q607.58-1.4 606.16-0.4 604.73 0.6 602.98 0.6L602.98 0.6ZM604.23-3.05Q606.38-3.05 607.81-5.65 609.23-8.25 609.88-11.68 610.53-15.1 610.53-17.6L610.53-17.6Q610.53-23.25 607.08-23.25L607.08-23.25Q604.63-23.25 603.16-20.73 601.68-18.2 601.11-14.85 600.53-11.5 600.53-8.75L600.53-8.75Q600.53-3.05 604.23-3.05L604.23-3.05ZM623.23 0.5Q621.08 0.5 620.13-0.68 619.18-1.85 619.18-3.75L619.18-3.75Q619.18-5 621.78-22.65L621.78-22.65 619.53-22.65 620.03-26.3 622.28-26.3 624.08-33.6 627.43-33.6 626.38-26.3 629.93-26.3 629.43-22.65 625.88-22.65Q623.38-5.45 623.38-4.9L623.38-4.9Q623.38-3.05 625.23-3.05L625.23-3.05 626.68-3.05 626.28-0.2Q625.68 0.1 624.83 0.3 623.98 0.5 623.23 0.5L623.23 0.5ZM634.63 0.5Q632.48 0.5 631.53-0.68 630.58-1.85 630.58-3.75L630.58-3.75Q630.58-5 633.18-22.65L633.18-22.65 630.93-22.65 631.43-26.3 633.68-26.3 635.48-33.6 638.83-33.6 637.78-26.3 641.33-26.3 640.83-22.65 637.28-22.65Q634.78-5.45 634.78-4.9L634.78-4.9Q634.78-3.05 636.63-3.05L636.63-3.05 638.08-3.05 637.68-0.2Q637.08 0.1 636.23 0.3 635.38 0.5 634.63 0.5L634.63 0.5ZM648.57 0.6Q645.52 0.6 643.72-1.85 641.92-4.3 641.92-9.15L641.92-9.15Q641.92-14.9 643.4-18.9 644.87-22.9 647.2-24.9 649.52-26.9 652.07-26.9L652.07-26.9Q656.22-26.9 657.52-22.65L657.52-22.65 658.42-26.3 661.67-26.3Q658.62-5 658.62-4.45L658.62-4.45Q658.62-3.75 658.95-3.4 659.27-3.05 659.82-3.05L659.82-3.05 661.42-3.05 661.02-0.2Q659.87 0.6 658.22 0.6L658.22 0.6Q656.57 0.6 655.62-0.4 654.67-1.4 654.62-3.55L654.62-3.55Q653.17-1.4 651.75-0.4 650.32 0.6 648.57 0.6L648.57 0.6ZM649.82-3.05Q651.97-3.05 653.4-5.65 654.82-8.25 655.47-11.68 656.12-15.1 656.12-17.6L656.12-17.6Q656.12-23.25 652.67-23.25L652.67-23.25Q650.22-23.25 648.75-20.73 647.27-18.2 646.7-14.85 646.12-11.5 646.12-8.75L646.12-8.75Q646.12-3.05 649.82-3.05L649.82-3.05ZM664.17 0L669.22-36.15 673.32-36.15 671.52-23.25Q672.47-24.75 674.07-25.83 675.67-26.9 678.02-26.9L678.02-26.9Q681.02-26.9 682.37-25.23 683.72-23.55 683.72-21L683.72-21Q683.72-19.5 680.92 0L680.92 0 676.82 0Q679.52-18.55 679.52-20.05L679.52-20.05Q679.52-23.25 676.52-23.25L676.52-23.25Q674.07-23.25 672.45-20.93 670.82-18.6 670.27-14.7L670.27-14.7 668.22 0 664.17 0ZM696.12 0.6Q691.97 0.6 689.79-1.78 687.62-4.15 687.62-8.95L687.62-8.95Q687.62-16.1 690.14-21.5 692.67-26.9 698.77-26.9L698.77-26.9Q706.87-26.9 706.87-17.45L706.87-17.45Q706.87-14.5 706.47-11.95L706.47-11.95 692.02-11.95Q691.87-10.4 691.87-9.3L691.87-9.3Q691.87-3.05 696.12-3.05L696.12-3.05Q698.27-3.05 699.79-4.75 701.32-6.45 701.67-8.9L701.67-8.9 705.82-8.9Q705.17-4.8 702.64-2.1 700.12 0.6 696.12 0.6L696.12 0.6ZM692.52-15.6L702.57-15.6Q702.62-16.25 702.62-17.4L702.62-17.4Q702.62-23.25 698.77-23.25L698.77-23.25Q696.27-23.25 694.74-21.08 693.22-18.9 692.52-15.6L692.52-15.6ZM709.47 0L713.17-26.3 716.37-26.3 716.37-22.1Q717.42-24.3 718.54-25.6 719.67-26.9 721.62-26.9L721.62-26.9Q722.67-26.9 723.52-26.5L723.52-26.5 722.92-22.25 721.57-22.25Q719.52-22.25 717.84-20.4 716.17-18.55 715.72-15.2L715.72-15.2 713.57 0 709.47 0Z" opacity="1" transform="matrix(1,0,0,1,0,0)" fill="#000000" class="slogan-text-1" data-fill-palette-color="quaternary" id="text-1"></path></svg></g></svg></g></svg></g></svg></g><g transform="matrix(1,0,0,1,61.61684073559428,0)"><svg viewBox="0 0 89.92475975596855 89.92475975596855" height="89.92475975596855" width="89.92475975596855"><g><svg xmlns="http://www.w3.org/2000/svg" xmlns:xlink="http://www.w3.org/1999/xlink" version="1.1" x="0" y="0" viewBox="28.2 28.2 43.599999999999994 43.599999999999994" enable-background="new 0 0 100 100" xml:space="preserve" height="89.92475975596855" width="89.92475975596855" class="icon-icon-0" data-fill-palette-color="quaternary" id="icon-0"><g fill="#ffffff" data-fill-palette-color="quaternary"><g fill="#ffffff" data-fill-palette-color="quaternary"><path fill="#000000" d="M65 71.8H35C31.2 71.8 28.2 68.7 28.2 65V35C28.2 31.2 31.3 28.2 35 28.2H65C68.8 28.2 71.8 31.3 71.8 35V65C71.8 68.8 68.8 71.8 65 71.8M35 30.2C32.3 30.2 30.2 32.4 30.2 35V65C30.2 67.7 32.4 69.8 35 69.8H65C67.7 69.8 69.8 67.6 69.8 65V35C69.8 32.3 67.6 30.2 65 30.2z" data-fill-palette-color="quaternary"></path></g><g fill="#ffffff" data-fill-palette-color="quaternary"><path fill="#000000" d="M53.2 63.4H46.7C45.6 63.4 44.7 62.5 44.7 61.4V55.3H38.6C37.5 55.3 36.6 54.4 36.6 53.3V46.8C36.6 45.7 37.5 44.8 38.6 44.8H44.7V38.7C44.7 37.6 45.6 36.7 46.7 36.7H53.2C54.3 36.7 55.2 37.6 55.2 38.7V44.8H61.3C62.4 44.8 63.3 45.7 63.3 46.8V53.3C63.3 54.4 62.4 55.3 61.3 55.3H55.2V61.4C55.2 62.5 54.3 63.4 53.2 63.4M53.2 61.4V62.4zM38.6 46.8V53.3H45.7C46.3 53.3 46.7 53.7 46.7 54.3V61.4H53.2V54.3C53.2 53.7 53.6 53.3 54.2 53.3H61.3V46.8H54.2C53.6 46.8 53.2 46.4 53.2 45.8V38.7H46.7V45.8C46.7 46.4 46.3 46.8 45.7 46.8z" data-fill-palette-color="quaternary"></path></g></g></svg></g></svg></g><g></g></svg></g></svg></g></svg></g></svg></g><defs></defs></svg><rect width="342.85155851775386" height="342.85155851775386" fill="none" stroke="none" visibility="hidden"></rect></g></svg></g></svg>